<?xml version="1.0" encoding="utf-8" standalone="no"?>
<!DOCTYPE svg PUBLIC "-//W3C//DTD SVG 1.1//EN"
  "http://www.w3.org/Graphics/SVG/1.1/DTD/svg11.dtd">
<svg xmlns:xlink="http://www.w3.org/1999/xlink" width="742.79952pt" height="469.19952pt" viewBox="0 0 742.79952 469.19952" xmlns="http://www.w3.org/2000/svg" version="1.1">
 <metadata>
  <rdf:RDF xmlns:dc="http://purl.org/dc/elements/1.1/" xmlns:cc="http://creativecommons.org/ns#" xmlns:rdf="http://www.w3.org/1999/02/22-rdf-syntax-ns#">
   <cc:Work>
    <dc:type rdf:resource="http://purl.org/dc/dcmitype/StillImage"/>
    <dc:date>2026-09-15T03:50:34.876818</dc:date>
    <dc:format>image/svg+xml</dc:format>
    <dc:creator>
     <cc:Agent>
      <dc:title>Matplotlib v3.11.1, https://matplotlib.org/</dc:title>
     </cc:Agent>
    </dc:creator>
   </cc:Work>
  </rdf:RDF>
 </metadata>
 <defs>
  <style type="text/css">*{stroke-linejoin: round; stroke-linecap: butt}</style>
 </defs>
 <g id="figure_1">
  <g id="patch_1">
   <path d="M 0 469.19952 
L 742.79952 469.19952 
L 742.79952 0 
L 0 0 
z
" style="fill: #ffffff"/>
  </g>
  <g id="axes_1">
   <g id="patch_2">
    <path d="M 59.916563 395.99952 
L 728.39952 395.99952 
L 728.39952 49.1 
L 59.916563 49.1 
z
" style="fill: #ffffff"/>
   </g>
   <g id="matplotlib.axis_1">
    <g id="xtick_1">
     <g id="line2d_1">
      <defs>
       <path id="m994a0f61c2" d="M 0 0 
L 0 3.5 
" style="stroke: #000000; stroke-width: 0.8"/>
      </defs>
      <g>
       <use xlink:href="#m994a0f61c2" x="111.313463" y="395.99952" style="stroke: #000000; stroke-width: 0.8"/>
      </g>
     </g>
     <g id="text_1">
      <!-- 0.0 -->
      <g transform="translate(102.961744 418.29952) scale(0.18 -0.18)">
       <defs>
        <path id="THSarabunPSK-Bold-11" d="M 2234 1504 
Q 2234 858 1965 400 
Q 1696 -58 1197 -58 
Q 717 -58 448 400 
Q 179 858 179 1504 
Q 179 2150 448 2608 
Q 717 3066 1197 3066 
Q 1696 3066 1965 2608 
Q 2234 2150 2234 1504 
z
M 1824 1504 
Q 1824 2042 1670 2378 
Q 1517 2714 1210 2714 
Q 896 2714 742 2378 
Q 589 2042 589 1504 
Q 589 966 742 630 
Q 896 294 1203 294 
Q 1517 294 1670 630 
Q 1824 966 1824 1504 
z
" transform="scale(0.015625)"/>
        <path id="THSarabunPSK-Bold-f" d="M 858 250 
Q 858 122 768 32 
Q 678 -58 550 -58 
Q 422 -58 332 32 
Q 243 122 243 250 
Q 243 378 332 467 
Q 422 557 550 557 
Q 678 557 768 467 
Q 858 378 858 250 
z
" transform="scale(0.015625)"/>
       </defs>
       <use xlink:href="#THSarabunPSK-Bold-11"/>
       <use xlink:href="#THSarabunPSK-Bold-f" transform="translate(37.796875 0)"/>
       <use xlink:href="#THSarabunPSK-Bold-11" transform="translate(55 0)"/>
      </g>
     </g>
    </g>
    <g id="xtick_2">
     <g id="line2d_2">
      <g>
       <use xlink:href="#m994a0f61c2" x="192.1262" y="395.99952" style="stroke: #000000; stroke-width: 0.8"/>
      </g>
     </g>
     <g id="text_2">
      <!-- 1.0 -->
      <g transform="translate(183.774481 418.29952) scale(0.18 -0.18)">
       <defs>
        <path id="THSarabunPSK-Bold-12" d="M 1965 0 
L 614 0 
L 614 326 
L 1088 326 
L 1088 2451 
L 685 2112 
L 448 2374 
L 1261 3059 
Q 1498 3059 1498 2752 
L 1498 326 
L 1965 326 
L 1965 0 
z
" transform="scale(0.015625)"/>
       </defs>
       <use xlink:href="#THSarabunPSK-Bold-12"/>
       <use xlink:href="#THSarabunPSK-Bold-f" transform="translate(37.796875 0)"/>
       <use xlink:href="#THSarabunPSK-Bold-11" transform="translate(55 0)"/>
      </g>
     </g>
    </g>
    <g id="xtick_3">
     <g id="line2d_3">
      <g>
       <use xlink:href="#m994a0f61c2" x="272.938936" y="395.99952" style="stroke: #000000; stroke-width: 0.8"/>
      </g>
     </g>
     <g id="text_3">
      <!-- 1.5 -->
      <g transform="translate(264.587218 418.29952) scale(0.18 -0.18)">
       <defs>
        <path id="THSarabunPSK-Bold-16" d="M 2214 1075 
Q 2214 576 1862 262 
Q 1510 -51 954 -51 
Q 480 -51 166 224 
L 339 518 
Q 698 294 998 294 
Q 1331 294 1568 515 
Q 1805 736 1805 1069 
Q 1805 1344 1625 1494 
Q 1446 1645 1146 1645 
Q 845 1645 755 1434 
L 499 1421 
L 608 3046 
L 2131 3046 
L 2061 2701 
L 998 2701 
L 954 1958 
Q 1069 2010 1229 2010 
Q 1651 2010 1932 1747 
Q 2214 1485 2214 1075 
z
" transform="scale(0.015625)"/>
       </defs>
       <use xlink:href="#THSarabunPSK-Bold-12"/>
       <use xlink:href="#THSarabunPSK-Bold-f" transform="translate(37.796875 0)"/>
       <use xlink:href="#THSarabunPSK-Bold-16" transform="translate(55 0)"/>
      </g>
     </g>
    </g>
    <g id="xtick_4">
     <g id="line2d_4">
      <g>
       <use xlink:href="#m994a0f61c2" x="353.751673" y="395.99952" style="stroke: #000000; stroke-width: 0.8"/>
      </g>
     </g>
     <g id="text_4">
      <!-- 2.0 -->
      <g transform="translate(345.399954 418.29952) scale(0.18 -0.18)">
       <defs>
        <path id="THSarabunPSK-Bold-13" d="M 2227 0 
L 154 0 
Q 205 282 262 461 
Q 429 666 1280 1459 
Q 1805 1952 1805 2266 
Q 1805 2688 1306 2688 
Q 813 2688 717 2118 
L 339 2214 
Q 384 2624 659 2848 
Q 915 3059 1312 3059 
Q 1702 3059 1958 2828 
Q 2214 2598 2214 2246 
Q 2214 1933 1882 1536 
Q 1677 1299 1197 877 
Q 768 499 672 358 
L 2304 358 
L 2227 0 
z
" transform="scale(0.015625)"/>
       </defs>
       <use xlink:href="#THSarabunPSK-Bold-13"/>
       <use xlink:href="#THSarabunPSK-Bold-f" transform="translate(37.796875 0)"/>
       <use xlink:href="#THSarabunPSK-Bold-11" transform="translate(55 0)"/>
      </g>
     </g>
    </g>
    <g id="xtick_5">
     <g id="line2d_5">
      <g>
       <use xlink:href="#m994a0f61c2" x="434.56441" y="395.99952" style="stroke: #000000; stroke-width: 0.8"/>
      </g>
     </g>
     <g id="text_5">
      <!-- 2.5 -->
      <g transform="translate(426.212691 418.29952) scale(0.18 -0.18)">
       <use xlink:href="#THSarabunPSK-Bold-13"/>
       <use xlink:href="#THSarabunPSK-Bold-f" transform="translate(37.796875 0)"/>
       <use xlink:href="#THSarabunPSK-Bold-16" transform="translate(55 0)"/>
      </g>
     </g>
    </g>
    <g id="xtick_6">
     <g id="line2d_6">
      <g>
       <use xlink:href="#m994a0f61c2" x="515.377146" y="395.99952" style="stroke: #000000; stroke-width: 0.8"/>
      </g>
     </g>
     <g id="text_6">
      <!-- 3.0 -->
      <g transform="translate(507.025427 418.29952) scale(0.18 -0.18)">
       <defs>
        <path id="THSarabunPSK-Bold-14" d="M 2208 1056 
Q 2208 557 1853 253 
Q 1498 -51 922 -51 
Q 486 -51 166 218 
L 346 544 
Q 634 339 986 339 
Q 1318 339 1561 550 
Q 1805 762 1805 1043 
Q 1805 1248 1673 1389 
Q 1542 1530 1344 1530 
Q 1107 1530 890 1344 
L 717 1626 
Q 1030 1805 1274 2029 
Q 1562 2298 1562 2464 
Q 1562 2714 1210 2714 
Q 979 2714 784 2566 
Q 589 2419 506 2221 
L 218 2368 
Q 339 2688 611 2873 
Q 883 3059 1229 3059 
Q 1536 3059 1741 2899 
Q 1946 2739 1946 2470 
Q 1946 2208 1549 1869 
Q 1850 1811 2029 1593 
Q 2208 1376 2208 1056 
z
" transform="scale(0.015625)"/>
       </defs>
       <use xlink:href="#THSarabunPSK-Bold-14"/>
       <use xlink:href="#THSarabunPSK-Bold-f" transform="translate(37.796875 0)"/>
       <use xlink:href="#THSarabunPSK-Bold-11" transform="translate(55 0)"/>
      </g>
     </g>
    </g>
    <g id="xtick_7">
     <g id="line2d_7">
      <g>
       <use xlink:href="#m994a0f61c2" x="596.189883" y="395.99952" style="stroke: #000000; stroke-width: 0.8"/>
      </g>
     </g>
     <g id="text_7">
      <!-- 3.5 -->
      <g transform="translate(587.838164 418.29952) scale(0.18 -0.18)">
       <use xlink:href="#THSarabunPSK-Bold-14"/>
       <use xlink:href="#THSarabunPSK-Bold-f" transform="translate(37.796875 0)"/>
       <use xlink:href="#THSarabunPSK-Bold-16" transform="translate(55 0)"/>
      </g>
     </g>
    </g>
    <g id="xtick_8">
     <g id="line2d_8">
      <g>
       <use xlink:href="#m994a0f61c2" x="677.002619" y="395.99952" style="stroke: #000000; stroke-width: 0.8"/>
      </g>
     </g>
     <g id="text_8">
      <!-- 4.0 -->
      <g transform="translate(668.650901 418.29952) scale(0.18 -0.18)">
       <defs>
        <path id="THSarabunPSK-Bold-15" d="M 1466 1024 
L 1466 2586 
Q 1158 2387 912 1939 
Q 666 1491 582 1024 
L 1466 1024 
z
M 1875 0 
L 1466 0 
L 1466 678 
L 179 678 
Q 179 1478 684 2275 
Q 1190 3072 1875 3130 
L 1875 1024 
L 2285 1024 
L 2240 678 
L 1875 678 
L 1875 0 
z
" transform="scale(0.015625)"/>
       </defs>
       <use xlink:href="#THSarabunPSK-Bold-15"/>
       <use xlink:href="#THSarabunPSK-Bold-f" transform="translate(37.796875 0)"/>
       <use xlink:href="#THSarabunPSK-Bold-11" transform="translate(55 0)"/>
      </g>
     </g>
    </g>
    <g id="text_9">
     <!-- ระดับผลการเรียน (เกรด) -->
     <g style="fill: #111827" transform="translate(326.497104 449.79952) scale(0.2 -0.2)">
      <defs>
       <path id="THSarabunPSK-Bold-f8" d="M 1734 429 
Q 1734 224 1590 86 
Q 1446 -51 1242 -51 
Q 1037 -51 893 89 
Q 749 230 749 435 
Q 749 640 893 781 
Q 1037 922 1242 922 
Q 1318 922 1338 915 
L 1338 1466 
Q 1338 1568 912 1667 
Q 486 1766 141 1824 
Q 154 2176 326 2390 
Q 499 2605 826 2605 
Q 960 2605 1193 2544 
Q 1427 2483 1530 2483 
Q 1638 2483 1651 2624 
L 1965 2541 
Q 1850 2150 1542 2150 
Q 1427 2150 1212 2208 
Q 998 2266 890 2266 
Q 608 2266 570 2048 
Q 1062 1946 1398 1830 
Q 1734 1715 1734 1434 
L 1734 429 
z
M 1459 435 
Q 1459 525 1395 589 
Q 1331 653 1242 653 
Q 1152 653 1088 589 
Q 1024 525 1024 435 
Q 1024 346 1088 282 
Q 1152 218 1242 218 
Q 1331 218 1395 282 
Q 1459 346 1459 435 
z
" transform="scale(0.015625)"/>
       <path id="THSarabunPSK-Bold-105" d="M 1933 2541 
Q 1901 1523 979 1523 
Q 595 1523 390 1680 
Q 186 1837 186 2080 
Q 186 2266 314 2394 
Q 442 2522 627 2522 
Q 826 2522 950 2390 
Q 1075 2259 1075 2080 
Q 1075 1907 979 1824 
Q 1574 1850 1574 2541 
L 1933 2541 
z
M 819 2080 
Q 819 2163 761 2220 
Q 704 2278 621 2278 
Q 538 2278 483 2220 
Q 429 2163 429 2080 
Q 429 1997 483 1942 
Q 538 1888 621 1888 
Q 704 1888 761 1942 
Q 819 1997 819 2080 
z
M 1933 1088 
Q 1901 70 979 70 
Q 595 70 390 227 
Q 186 384 186 627 
Q 186 813 314 941 
Q 442 1069 627 1069 
Q 826 1069 950 937 
Q 1075 806 1075 627 
Q 1075 454 979 371 
Q 1574 397 1574 1088 
L 1933 1088 
z
M 819 627 
Q 819 710 761 768 
Q 704 826 621 826 
Q 538 826 483 768 
Q 429 710 429 627 
Q 429 544 483 489 
Q 538 435 621 435 
Q 704 435 761 489 
Q 819 544 819 627 
z
" transform="scale(0.015625)"/>
       <path id="THSarabunPSK-Bold-e9" d="M 2266 0 
L 1869 0 
L 1869 1715 
Q 1869 1958 1686 2112 
Q 1504 2266 1254 2266 
Q 986 2266 787 2083 
Q 589 1901 589 1645 
Q 589 1485 694 1190 
Q 800 896 800 749 
Q 800 704 787 627 
Q 973 928 1203 1133 
Q 1024 1146 922 1274 
Q 826 1382 826 1542 
Q 826 1709 950 1833 
Q 1075 1958 1248 1958 
Q 1421 1958 1542 1833 
Q 1664 1709 1664 1542 
Q 1664 1254 1382 902 
Q 992 422 941 326 
Q 845 160 845 0 
L 442 0 
Q 448 237 448 435 
Q 448 781 371 966 
Q 314 1133 256 1309 
Q 198 1485 198 1619 
Q 198 2054 502 2329 
Q 806 2605 1242 2605 
Q 1683 2605 1965 2374 
Q 2266 2125 2266 1690 
L 2266 0 
z
M 1440 1542 
Q 1440 1626 1385 1680 
Q 1331 1734 1248 1734 
Q 1165 1734 1110 1680 
Q 1056 1626 1056 1542 
Q 1056 1459 1110 1404 
Q 1165 1350 1248 1350 
Q 1331 1350 1385 1404 
Q 1440 1459 1440 1542 
z
" transform="scale(0.015625)"/>
       <path id="THSarabunPSK-Bold-106" d="M 320 4115 
Q 154 3053 -832 3053 
Q -1216 3053 -1421 3209 
Q -1626 3366 -1626 3610 
Q -1626 3795 -1498 3923 
Q -1370 4051 -1184 4051 
Q -986 4051 -861 3920 
Q -736 3789 -736 3610 
Q -736 3437 -832 3354 
Q -166 3379 -58 4115 
L 320 4115 
z
M -992 3610 
Q -992 3693 -1049 3750 
Q -1107 3808 -1190 3808 
Q -1274 3808 -1328 3750 
Q -1382 3693 -1382 3610 
Q -1382 3526 -1328 3472 
Q -1274 3418 -1190 3418 
Q -1107 3418 -1049 3472 
Q -992 3526 -992 3610 
z
" transform="scale(0.015625)"/>
       <path id="THSarabunPSK-Bold-ef" d="M 2522 576 
Q 2522 -51 1594 -51 
Q 659 -51 659 576 
L 659 1645 
Q 595 1632 550 1632 
Q 346 1632 205 1776 
Q 64 1920 64 2125 
Q 64 2323 205 2464 
Q 346 2605 550 2605 
Q 768 2605 912 2457 
Q 1056 2310 1056 2086 
L 1056 570 
Q 1056 442 1229 365 
Q 1402 288 1594 288 
Q 1779 288 1952 365 
Q 2125 442 2125 570 
L 2125 2554 
L 2522 2554 
L 2522 576 
z
M 768 2118 
Q 768 2208 704 2272 
Q 640 2336 550 2336 
Q 461 2336 397 2272 
Q 333 2208 333 2118 
Q 333 2029 397 1965 
Q 461 1901 550 1901 
Q 640 1901 704 1965 
Q 768 2029 768 2118 
z
" transform="scale(0.015625)"/>
       <path id="THSarabunPSK-Bold-f1" d="M 2323 0 
L 1926 0 
L 1286 1024 
L 646 0 
L 256 0 
L 256 2086 
Q 256 2310 406 2457 
Q 557 2605 768 2605 
Q 973 2605 1113 2461 
Q 1254 2317 1254 2118 
Q 1254 1914 1113 1773 
Q 973 1632 768 1632 
Q 678 1632 653 1638 
L 653 544 
L 1158 1331 
L 1414 1331 
L 1926 538 
L 1926 2554 
L 2323 2554 
L 2323 0 
z
M 986 2118 
Q 986 2208 922 2272 
Q 858 2336 768 2336 
Q 678 2336 614 2272 
Q 550 2208 550 2118 
Q 550 2029 614 1965 
Q 678 1901 768 1901 
Q 858 1901 922 1965 
Q 986 2029 986 2118 
z
" transform="scale(0.015625)"/>
       <path id="THSarabunPSK-Bold-fa" d="M 2227 0 
L 1830 0 
L 1830 1107 
Q 1830 1299 1613 1402 
Q 1446 1478 1242 1478 
Q 1043 1478 902 1382 
Q 730 1267 730 1075 
L 730 915 
Q 781 928 845 928 
Q 1050 928 1197 784 
Q 1344 640 1344 442 
Q 1344 237 1190 96 
Q 1037 -45 838 -45 
Q 627 -45 480 92 
Q 333 230 333 442 
L 333 1030 
Q 333 1408 614 1619 
Q 864 1805 1235 1805 
Q 1632 1805 1830 1587 
L 1830 1875 
Q 1830 2074 1600 2182 
Q 1421 2266 1197 2266 
Q 947 2266 768 2150 
Q 570 2022 531 1805 
L 147 1805 
Q 186 2195 486 2406 
Q 768 2605 1210 2605 
Q 1606 2605 1894 2419 
Q 2227 2208 2227 1830 
L 2227 0 
z
M 1062 442 
Q 1062 531 998 595 
Q 934 659 845 659 
Q 755 659 691 595 
Q 627 531 627 442 
Q 627 352 691 288 
Q 755 224 845 224 
Q 934 224 998 288 
Q 1062 352 1062 442 
z
" transform="scale(0.015625)"/>
       <path id="THSarabunPSK-Bold-d6" d="M 2176 0 
L 1779 0 
L 1779 1696 
Q 1779 1958 1619 2112 
Q 1459 2266 1197 2266 
Q 813 2266 614 1939 
Q 915 1882 1043 1651 
Q 717 1459 717 1190 
L 717 0 
L 320 0 
L 320 1216 
Q 320 1485 582 1638 
Q 422 1747 192 1715 
Q 205 2112 499 2368 
Q 768 2605 1184 2605 
Q 1645 2605 1910 2358 
Q 2176 2112 2176 1690 
L 2176 0 
z
" transform="scale(0.015625)"/>
       <path id="THSarabunPSK-Bold-107" d="M 1824 0 
L 1427 0 
L 1427 1862 
Q 1427 2042 1305 2154 
Q 1184 2266 973 2266 
Q 762 2266 627 2125 
Q 493 1984 486 1766 
L 102 1766 
Q 122 2150 355 2377 
Q 589 2605 973 2605 
Q 1331 2605 1577 2422 
Q 1824 2240 1824 1869 
L 1824 0 
z
" transform="scale(0.015625)"/>
       <path id="THSarabunPSK-Bold-111" d="M 1306 435 
Q 1306 230 1162 89 
Q 1018 -51 819 -51 
Q 602 -51 454 96 
Q 307 243 307 467 
L 307 2554 
L 704 2554 
L 704 909 
Q 736 922 819 922 
Q 1018 922 1162 781 
Q 1306 640 1306 435 
z
M 1037 435 
Q 1037 525 973 589 
Q 909 653 819 653 
Q 730 653 666 589 
Q 602 525 602 435 
Q 602 346 666 282 
Q 730 218 819 218 
Q 909 218 973 282 
Q 1037 346 1037 435 
z
" transform="scale(0.015625)"/>
       <path id="THSarabunPSK-Bold-10a" d="M -314 2880 
Q -1107 3136 -1766 3136 
Q -2067 3136 -2374 3098 
Q -2298 3955 -1440 3955 
Q -986 3955 -710 3706 
L -710 4147 
L -326 4147 
L -326 2970 
Q -320 2925 -314 2880 
z
M -723 3258 
Q -762 3418 -954 3558 
Q -1146 3699 -1389 3699 
Q -1619 3699 -1785 3606 
Q -1952 3514 -1997 3360 
Q -1888 3386 -1658 3386 
Q -1184 3386 -723 3258 
z
" transform="scale(0.015625)"/>
       <path id="THSarabunPSK-Bold-f7" d="M 2144 646 
Q 2144 -51 1197 -51 
Q 256 -51 256 646 
L 256 941 
Q 256 1248 518 1376 
Q 224 1574 224 1958 
Q 224 2240 381 2422 
Q 538 2605 813 2605 
Q 1005 2605 1139 2486 
Q 1274 2368 1274 2176 
Q 1274 2003 1152 1875 
Q 1030 1747 832 1747 
Q 730 1747 653 1779 
Q 704 1536 883 1536 
L 1338 1536 
L 1338 1222 
L 883 1222 
Q 781 1222 717 1132 
Q 653 1043 653 928 
L 653 634 
Q 653 288 1197 288 
Q 1747 288 1747 634 
L 1747 2554 
L 2144 2554 
L 2144 646 
z
M 1037 2170 
Q 1037 2259 979 2316 
Q 922 2374 832 2374 
Q 742 2374 684 2316 
Q 627 2259 627 2170 
Q 627 2080 684 2022 
Q 742 1965 832 1965 
Q 922 1965 979 2022 
Q 1037 2080 1037 2170 
z
" transform="scale(0.015625)"/>
       <path id="THSarabunPSK-Bold-ee" d="M 2445 1210 
Q 2445 954 2310 858 
Q 2560 717 2560 429 
Q 2560 224 2419 86 
Q 2278 -51 2080 -51 
Q 1894 -51 1760 67 
Q 1626 186 1600 365 
Q 1395 262 1306 211 
Q 1152 115 1062 0 
L 659 0 
L 659 1645 
Q 595 1632 550 1632 
Q 346 1632 205 1776 
Q 64 1920 64 2125 
Q 64 2323 205 2464 
Q 346 2605 550 2605 
Q 768 2605 912 2457 
Q 1056 2310 1056 2086 
L 1056 461 
Q 1158 538 1517 685 
Q 1837 819 1958 954 
Q 2048 1050 2048 1261 
L 2048 2554 
L 2445 2554 
L 2445 1210 
z
M 768 2118 
Q 768 2208 704 2272 
Q 640 2336 550 2336 
Q 461 2336 397 2272 
Q 333 2208 333 2118 
Q 333 2029 397 1965 
Q 461 1901 550 1901 
Q 640 1901 704 1965 
Q 768 2029 768 2118 
z
M 2291 429 
Q 2291 518 2227 582 
Q 2163 646 2074 646 
Q 1984 646 1920 582 
Q 1856 518 1856 429 
Q 1856 339 1920 275 
Q 1984 211 2074 211 
Q 2163 211 2227 275 
Q 2291 339 2291 429 
z
" transform="scale(0.015625)"/>
       <path id="THSarabunPSK-Bold-1f0" transform="scale(0.015625)"/>
       <path id="THSarabunPSK-Bold-9" d="M 1037 -352 
Q 282 429 282 1504 
Q 282 2509 1018 3392 
L 1491 3392 
Q 678 2502 678 1504 
Q 678 557 1485 -352 
L 1037 -352 
z
" transform="scale(0.015625)"/>
       <path id="THSarabunPSK-Bold-a" d="M 1274 1523 
Q 1274 474 518 -352 
L 77 -352 
Q 877 602 877 1523 
Q 877 2451 70 3392 
L 512 3392 
Q 1274 2579 1274 1523 
z
" transform="scale(0.015625)"/>
      </defs>
      <use xlink:href="#THSarabunPSK-Bold-f8"/>
      <use xlink:href="#THSarabunPSK-Bold-105" transform="translate(32.90625 0)"/>
      <use xlink:href="#THSarabunPSK-Bold-e9" transform="translate(66.90625 0)"/>
      <use xlink:href="#THSarabunPSK-Bold-106" transform="translate(107.40625 0)"/>
      <use xlink:href="#THSarabunPSK-Bold-ef" transform="translate(107.40625 0)"/>
      <use xlink:href="#THSarabunPSK-Bold-f1" transform="translate(151.90625 0)"/>
      <use xlink:href="#THSarabunPSK-Bold-fa" transform="translate(193.3125 0)"/>
      <use xlink:href="#THSarabunPSK-Bold-d6" transform="translate(233.21875 0)"/>
      <use xlink:href="#THSarabunPSK-Bold-107" transform="translate(272.3125 0)"/>
      <use xlink:href="#THSarabunPSK-Bold-f8" transform="translate(305.90625 0)"/>
      <use xlink:href="#THSarabunPSK-Bold-111" transform="translate(338.8125 0)"/>
      <use xlink:href="#THSarabunPSK-Bold-f8" transform="translate(357.109375 0)"/>
      <use xlink:href="#THSarabunPSK-Bold-10a" transform="translate(390.015625 0)"/>
      <use xlink:href="#THSarabunPSK-Bold-f7" transform="translate(390.015625 0)"/>
      <use xlink:href="#THSarabunPSK-Bold-ee" transform="translate(428.609375 0)"/>
      <use xlink:href="#THSarabunPSK-Bold-1f0" transform="translate(471.90625 0)"/>
      <use xlink:href="#THSarabunPSK-Bold-9" transform="translate(494.5 0)"/>
      <use xlink:href="#THSarabunPSK-Bold-111" transform="translate(518.90625 0)"/>
      <use xlink:href="#THSarabunPSK-Bold-d6" transform="translate(539.703125 0)"/>
      <use xlink:href="#THSarabunPSK-Bold-f8" transform="translate(578.796875 0)"/>
      <use xlink:href="#THSarabunPSK-Bold-e9" transform="translate(611.703125 0)"/>
      <use xlink:href="#THSarabunPSK-Bold-a" transform="translate(652.203125 0)"/>
     </g>
    </g>
   </g>
   <g id="matplotlib.axis_2">
    <g id="ytick_1">
     <g id="line2d_9">
      <path d="M 59.916563 395.99952 
L 728.39952 395.99952 
" clip-path="url(#pfb2f18faab)" style="fill: none; stroke-dasharray: 2.59,1.12; stroke-dashoffset: 0; stroke: #e2e8f0; stroke-opacity: 0.85; stroke-width: 0.7"/>
     </g>
     <g id="line2d_10">
      <defs>
       <path id="me6de9bf4a0" d="M 0 0 
L -3.5 0 
" style="stroke: #000000; stroke-width: 0.8"/>
      </defs>
      <g>
       <use xlink:href="#me6de9bf4a0" x="59.916563" y="395.99952" style="stroke: #000000; stroke-width: 0.8"/>
      </g>
     </g>
     <g id="text_10">
      <!-- 0 -->
      <g transform="translate(46.4 403.64952) scale(0.18 -0.18)">
       <defs>
        <path id="THSarabunPSK-11" d="M 2112 1453 
Q 2112 922 1907 486 
Q 1645 -70 1158 -70 
Q 666 -70 403 486 
Q 198 915 198 1453 
Q 198 2099 422 2547 
Q 685 3066 1158 3066 
Q 1632 3066 1894 2547 
Q 2112 2099 2112 1453 
z
M 1856 1459 
Q 1856 2016 1696 2400 
Q 1504 2848 1158 2848 
Q 806 2848 614 2400 
Q 454 2022 454 1459 
Q 454 998 608 627 
Q 800 147 1158 147 
Q 1510 147 1702 627 
Q 1856 998 1856 1459 
z
" transform="scale(0.015625)"/>
       </defs>
       <use xlink:href="#THSarabunPSK-11"/>
      </g>
     </g>
    </g>
    <g id="ytick_2">
     <g id="line2d_11">
      <path d="M 59.916563 350.354846 
L 728.39952 350.354846 
" clip-path="url(#pfb2f18faab)" style="fill: none; stroke-dasharray: 2.59,1.12; stroke-dashoffset: 0; stroke: #e2e8f0; stroke-opacity: 0.85; stroke-width: 0.7"/>
     </g>
     <g id="line2d_12">
      <g>
       <use xlink:href="#me6de9bf4a0" x="59.916563" y="350.354846" style="stroke: #000000; stroke-width: 0.8"/>
      </g>
     </g>
     <g id="text_11">
      <!-- 1 -->
      <g transform="translate(46.4 358.004846) scale(0.18 -0.18)">
       <defs>
        <path id="THSarabunPSK-12" d="M 1837 0 
L 621 0 
L 621 230 
L 1101 230 
L 1101 2669 
L 621 2253 
L 480 2413 
L 1216 3059 
Q 1357 3059 1357 2816 
L 1357 230 
L 1837 230 
L 1837 0 
z
" transform="scale(0.015625)"/>
       </defs>
       <use xlink:href="#THSarabunPSK-12"/>
      </g>
     </g>
    </g>
    <g id="ytick_3">
     <g id="line2d_13">
      <path d="M 59.916563 304.710173 
L 728.39952 304.710173 
" clip-path="url(#pfb2f18faab)" style="fill: none; stroke-dasharray: 2.59,1.12; stroke-dashoffset: 0; stroke: #e2e8f0; stroke-opacity: 0.85; stroke-width: 0.7"/>
     </g>
     <g id="line2d_14">
      <g>
       <use xlink:href="#me6de9bf4a0" x="59.916563" y="304.710173" style="stroke: #000000; stroke-width: 0.8"/>
      </g>
     </g>
     <g id="text_12">
      <!-- 2 -->
      <g transform="translate(46.4 312.360173) scale(0.18 -0.18)">
       <defs>
        <path id="THSarabunPSK-13" d="M 2144 250 
L 2093 0 
L 166 0 
Q 192 160 256 365 
Q 531 646 864 966 
Q 1197 1286 1606 1779 
Q 1811 2054 1811 2304 
Q 1811 2554 1651 2688 
Q 1491 2822 1235 2822 
Q 659 2822 582 2246 
L 352 2310 
Q 390 2682 646 2880 
Q 877 3059 1242 3059 
Q 1600 3059 1833 2838 
Q 2067 2618 2067 2285 
Q 2067 1798 1299 1062 
Q 742 512 512 250 
L 2144 250 
z
" transform="scale(0.015625)"/>
       </defs>
       <use xlink:href="#THSarabunPSK-13"/>
      </g>
     </g>
    </g>
    <g id="ytick_4">
     <g id="line2d_15">
      <path d="M 59.916563 259.065499 
L 728.39952 259.065499 
" clip-path="url(#pfb2f18faab)" style="fill: none; stroke-dasharray: 2.59,1.12; stroke-dashoffset: 0; stroke: #e2e8f0; stroke-opacity: 0.85; stroke-width: 0.7"/>
     </g>
     <g id="line2d_16">
      <g>
       <use xlink:href="#me6de9bf4a0" x="59.916563" y="259.065499" style="stroke: #000000; stroke-width: 0.8"/>
      </g>
     </g>
     <g id="text_13">
      <!-- 3 -->
      <g transform="translate(46.4 266.715499) scale(0.18 -0.18)">
       <defs>
        <path id="THSarabunPSK-14" d="M 2099 1030 
Q 2099 544 1766 243 
Q 1434 -58 909 -70 
Q 486 -83 218 166 
L 326 365 
Q 563 186 947 186 
Q 1318 186 1580 435 
Q 1843 685 1843 1018 
Q 1843 1267 1689 1433 
Q 1536 1600 1299 1600 
Q 1024 1600 870 1453 
L 749 1658 
Q 992 1843 1235 2035 
Q 1600 2342 1600 2515 
Q 1600 2829 1165 2829 
Q 685 2829 448 2349 
L 269 2445 
Q 371 2726 620 2892 
Q 870 3059 1184 3059 
Q 1453 3059 1645 2915 
Q 1837 2771 1837 2522 
Q 1837 2227 1312 1830 
L 1350 1830 
Q 1690 1830 1894 1603 
Q 2099 1376 2099 1030 
z
" transform="scale(0.015625)"/>
       </defs>
       <use xlink:href="#THSarabunPSK-14"/>
      </g>
     </g>
    </g>
    <g id="ytick_5">
     <g id="line2d_17">
      <path d="M 59.916563 213.420825 
L 728.39952 213.420825 
" clip-path="url(#pfb2f18faab)" style="fill: none; stroke-dasharray: 2.59,1.12; stroke-dashoffset: 0; stroke: #e2e8f0; stroke-opacity: 0.85; stroke-width: 0.7"/>
     </g>
     <g id="line2d_18">
      <g>
       <use xlink:href="#me6de9bf4a0" x="59.916563" y="213.420825" style="stroke: #000000; stroke-width: 0.8"/>
      </g>
     </g>
     <g id="text_14">
      <!-- 4 -->
      <g transform="translate(46.4 221.070825) scale(0.18 -0.18)">
       <defs>
        <path id="THSarabunPSK-15" d="M 1498 947 
L 1498 2797 
Q 1056 2579 768 2035 
Q 493 1517 480 947 
L 1498 947 
z
M 1754 947 
L 2208 947 
L 2176 710 
L 1754 710 
L 1754 0 
L 1498 0 
L 1498 710 
L 205 710 
Q 218 1664 637 2323 
Q 1056 2982 1754 3123 
L 1754 947 
z
" transform="scale(0.015625)"/>
       </defs>
       <use xlink:href="#THSarabunPSK-15"/>
      </g>
     </g>
    </g>
    <g id="ytick_6">
     <g id="line2d_19">
      <path d="M 59.916563 167.776152 
L 728.39952 167.776152 
" clip-path="url(#pfb2f18faab)" style="fill: none; stroke-dasharray: 2.59,1.12; stroke-dashoffset: 0; stroke: #e2e8f0; stroke-opacity: 0.85; stroke-width: 0.7"/>
     </g>
     <g id="line2d_20">
      <g>
       <use xlink:href="#me6de9bf4a0" x="59.916563" y="167.776152" style="stroke: #000000; stroke-width: 0.8"/>
      </g>
     </g>
     <g id="text_15">
      <!-- 5 -->
      <g transform="translate(46.4 175.426152) scale(0.18 -0.18)">
       <defs>
        <path id="THSarabunPSK-16" d="M 2035 1050 
Q 2035 557 1702 253 
Q 1370 -51 845 -51 
Q 403 -51 154 186 
L 262 384 
Q 352 326 454 275 
Q 634 192 896 192 
Q 1242 192 1507 416 
Q 1773 640 1773 1043 
Q 1773 1389 1542 1562 
Q 1350 1715 1043 1715 
Q 774 1715 614 1504 
L 480 1491 
L 576 3040 
L 1939 3040 
L 1894 2797 
L 819 2797 
L 762 1894 
Q 928 1958 1120 1958 
Q 1491 1958 1754 1728 
Q 2035 1472 2035 1050 
z
" transform="scale(0.015625)"/>
       </defs>
       <use xlink:href="#THSarabunPSK-16"/>
      </g>
     </g>
    </g>
    <g id="ytick_7">
     <g id="line2d_21">
      <path d="M 59.916563 122.131478 
L 728.39952 122.131478 
" clip-path="url(#pfb2f18faab)" style="fill: none; stroke-dasharray: 2.59,1.12; stroke-dashoffset: 0; stroke: #e2e8f0; stroke-opacity: 0.85; stroke-width: 0.7"/>
     </g>
     <g id="line2d_22">
      <g>
       <use xlink:href="#me6de9bf4a0" x="59.916563" y="122.131478" style="stroke: #000000; stroke-width: 0.8"/>
      </g>
     </g>
     <g id="text_16">
      <!-- 6 -->
      <g transform="translate(46.4 129.781478) scale(0.18 -0.18)">
       <defs>
        <path id="THSarabunPSK-17" d="M 2061 928 
Q 2061 512 1827 230 
Q 1594 -51 1190 -51 
Q 736 -51 474 294 
Q 243 602 243 1069 
Q 243 1805 697 2384 
Q 1152 2963 1856 3098 
L 1875 2912 
Q 1446 2790 1094 2458 
Q 698 2086 550 1574 
Q 576 1670 736 1779 
Q 941 1907 1210 1907 
Q 1587 1907 1824 1619 
Q 2061 1331 2061 928 
z
M 1805 928 
Q 1805 1248 1632 1472 
Q 1459 1696 1158 1696 
Q 883 1696 691 1472 
Q 499 1248 499 928 
Q 499 614 691 390 
Q 883 166 1158 166 
Q 1466 166 1635 390 
Q 1805 614 1805 928 
z
" transform="scale(0.015625)"/>
       </defs>
       <use xlink:href="#THSarabunPSK-17"/>
      </g>
     </g>
    </g>
    <g id="ytick_8">
     <g id="line2d_23">
      <path d="M 59.916563 76.486804 
L 728.39952 76.486804 
" clip-path="url(#pfb2f18faab)" style="fill: none; stroke-dasharray: 2.59,1.12; stroke-dashoffset: 0; stroke: #e2e8f0; stroke-opacity: 0.85; stroke-width: 0.7"/>
     </g>
     <g id="line2d_24">
      <g>
       <use xlink:href="#me6de9bf4a0" x="59.916563" y="76.486804" style="stroke: #000000; stroke-width: 0.8"/>
      </g>
     </g>
     <g id="text_17">
      <!-- 7 -->
      <g transform="translate(46.4 84.136804) scale(0.18 -0.18)">
       <defs>
        <path id="THSarabunPSK-18" d="M 1107 0 
L 838 0 
Q 838 966 1222 1850 
Q 1312 2054 1529 2422 
Q 1747 2790 1754 2797 
L 211 2797 
L 307 3040 
L 2106 3040 
L 2054 2784 
Q 1626 2221 1366 1565 
Q 1107 909 1107 0 
z
" transform="scale(0.015625)"/>
       </defs>
       <use xlink:href="#THSarabunPSK-18"/>
      </g>
     </g>
    </g>
    <g id="text_18">
     <!-- จำนวนนักเรียน (คน) -->
     <g style="fill: #111827" transform="translate(31.4 279.307573) rotate(-90) scale(0.2 -0.2)">
      <defs>
       <path id="THSarabunPSK-Bold-dd" d="M 2170 448 
Q 2170 211 2016 80 
Q 1862 -51 1619 -51 
Q 1152 -51 1075 365 
L 979 870 
Q 909 845 819 845 
Q 634 845 499 979 
Q 365 1114 365 1299 
Q 365 1485 499 1619 
Q 634 1754 819 1754 
Q 986 1754 1114 1648 
Q 1242 1542 1274 1382 
L 1453 403 
Q 1472 288 1613 288 
Q 1773 288 1773 416 
L 1773 1856 
Q 1773 2067 1574 2176 
Q 1408 2266 1165 2266 
Q 614 2266 506 1952 
L 122 1952 
Q 205 2598 1133 2605 
Q 1562 2605 1837 2445 
Q 2170 2240 2170 1830 
L 2170 448 
z
M 1018 1299 
Q 1018 1382 960 1440 
Q 902 1498 819 1498 
Q 736 1498 678 1440 
Q 621 1382 621 1299 
Q 621 1216 678 1158 
Q 736 1101 819 1101 
Q 902 1101 960 1158 
Q 1018 1216 1018 1299 
z
" transform="scale(0.015625)"/>
       <path id="THSarabunPSK-Bold-108" d="M -70 3514 
Q -70 3290 -227 3133 
Q -384 2976 -608 2976 
Q -838 2976 -995 3133 
Q -1152 3290 -1152 3514 
Q -1152 3738 -992 3898 
Q -832 4058 -608 4058 
Q -384 4058 -227 3901 
Q -70 3744 -70 3514 
z
M -352 3514 
Q -352 3622 -425 3699 
Q -499 3776 -608 3776 
Q -717 3776 -793 3699 
Q -870 3622 -870 3514 
Q -870 3405 -793 3331 
Q -717 3258 -608 3258 
Q -499 3258 -425 3331 
Q -352 3405 -352 3514 
z
M 1824 0 
L 1427 0 
L 1427 1862 
Q 1427 2042 1305 2154 
Q 1184 2266 973 2266 
Q 762 2266 627 2125 
Q 493 1984 486 1766 
L 102 1766 
Q 122 2150 355 2377 
Q 589 2605 973 2605 
Q 1331 2605 1577 2422 
Q 1824 2240 1824 1869 
L 1824 0 
z
" transform="scale(0.015625)"/>
       <path id="THSarabunPSK-Bold-fc" d="M 2099 467 
Q 2099 243 1952 99 
Q 1805 -45 1587 -45 
Q 1382 -45 1241 96 
Q 1101 237 1101 435 
Q 1101 640 1241 781 
Q 1382 922 1587 922 
Q 1658 922 1702 915 
L 1702 1856 
Q 1702 2266 1114 2266 
Q 870 2266 700 2115 
Q 531 1965 531 1715 
L 147 1715 
Q 166 2138 425 2371 
Q 685 2605 1114 2605 
Q 1536 2605 1792 2438 
Q 2099 2240 2099 1830 
L 2099 467 
z
M 1805 442 
Q 1805 531 1741 595 
Q 1677 659 1587 659 
Q 1498 659 1434 595 
Q 1370 531 1370 442 
Q 1370 352 1434 288 
Q 1498 224 1587 224 
Q 1677 224 1741 288 
Q 1805 352 1805 442 
z
" transform="scale(0.015625)"/>
       <path id="THSarabunPSK-Bold-d9" d="M 2253 0 
L 1856 0 
L 1856 1747 
Q 1856 1978 1658 2131 
Q 1472 2266 1229 2266 
Q 941 2266 768 2070 
Q 595 1875 595 1619 
Q 595 1549 624 1385 
Q 653 1222 653 1101 
L 653 922 
Q 653 928 675 1059 
Q 698 1190 704 1261 
Q 768 1530 902 1709 
Q 1069 1939 1286 1939 
Q 1459 1939 1587 1817 
Q 1715 1696 1715 1523 
Q 1715 1357 1587 1232 
Q 1459 1107 1286 1107 
Q 1126 1107 998 1222 
Q 806 640 806 0 
L 410 0 
L 410 410 
Q 410 710 304 1065 
Q 198 1421 198 1626 
Q 198 2067 518 2342 
Q 819 2605 1261 2605 
Q 1664 2605 1939 2394 
Q 2253 2150 2253 1734 
L 2253 0 
z
M 1478 1523 
Q 1478 1606 1420 1664 
Q 1363 1722 1280 1722 
Q 1197 1722 1142 1664 
Q 1088 1606 1088 1523 
Q 1088 1440 1142 1385 
Q 1197 1331 1280 1331 
Q 1363 1331 1420 1385 
Q 1478 1440 1478 1523 
z
" transform="scale(0.015625)"/>
      </defs>
      <use xlink:href="#THSarabunPSK-Bold-dd"/>
      <use xlink:href="#THSarabunPSK-Bold-108" transform="translate(39 0)"/>
      <use xlink:href="#THSarabunPSK-Bold-ee" transform="translate(72.59375 0)"/>
      <use xlink:href="#THSarabunPSK-Bold-fc" transform="translate(115.890625 0)"/>
      <use xlink:href="#THSarabunPSK-Bold-ee" transform="translate(153.796875 0)"/>
      <use xlink:href="#THSarabunPSK-Bold-ee" transform="translate(197.09375 0)"/>
      <use xlink:href="#THSarabunPSK-Bold-106" transform="translate(240.390625 0)"/>
      <use xlink:href="#THSarabunPSK-Bold-d6" transform="translate(240.390625 0)"/>
      <use xlink:href="#THSarabunPSK-Bold-111" transform="translate(279.484375 0)"/>
      <use xlink:href="#THSarabunPSK-Bold-f8" transform="translate(297.78125 0)"/>
      <use xlink:href="#THSarabunPSK-Bold-10a" transform="translate(330.6875 0)"/>
      <use xlink:href="#THSarabunPSK-Bold-f7" transform="translate(330.6875 0)"/>
      <use xlink:href="#THSarabunPSK-Bold-ee" transform="translate(369.28125 0)"/>
      <use xlink:href="#THSarabunPSK-Bold-1f0" transform="translate(412.578125 0)"/>
      <use xlink:href="#THSarabunPSK-Bold-9" transform="translate(435.171875 0)"/>
      <use xlink:href="#THSarabunPSK-Bold-d9" transform="translate(459.578125 0)"/>
      <use xlink:href="#THSarabunPSK-Bold-ee" transform="translate(499.875 0)"/>
      <use xlink:href="#THSarabunPSK-Bold-a" transform="translate(543.171875 0)"/>
     </g>
    </g>
   </g>
   <g id="patch_3">
    <path d="M 90.302151 395.99952 
L 132.324775 395.99952 
L 132.324775 395.99952 
L 90.302151 395.99952 
z
" clip-path="url(#pfb2f18faab)" style="fill: #dc2626; opacity: 0.92; stroke: #1e3a8a; stroke-linejoin: miter"/>
   </g>
   <g id="patch_4">
    <path d="M 171.114888 395.99952 
L 213.137511 395.99952 
L 213.137511 122.131478 
L 171.114888 122.131478 
z
" clip-path="url(#pfb2f18faab)" style="fill: #1d4ed8; opacity: 0.92; stroke: #1e3a8a; stroke-linejoin: miter"/>
   </g>
   <g id="patch_5">
    <path d="M 251.927625 395.99952 
L 293.950248 395.99952 
L 293.950248 350.354846 
L 251.927625 350.354846 
z
" clip-path="url(#pfb2f18faab)" style="fill: #1d4ed8; opacity: 0.92; stroke: #1e3a8a; stroke-linejoin: miter"/>
   </g>
   <g id="patch_6">
    <path d="M 332.740361 395.99952 
L 374.762984 395.99952 
L 374.762984 350.354846 
L 332.740361 350.354846 
z
" clip-path="url(#pfb2f18faab)" style="fill: #1d4ed8; opacity: 0.92; stroke: #1e3a8a; stroke-linejoin: miter"/>
   </g>
   <g id="patch_7">
    <path d="M 413.553098 395.99952 
L 455.575721 395.99952 
L 455.575721 304.710173 
L 413.553098 304.710173 
z
" clip-path="url(#pfb2f18faab)" style="fill: #1d4ed8; opacity: 0.92; stroke: #1e3a8a; stroke-linejoin: miter"/>
   </g>
   <g id="patch_8">
    <path d="M 494.365835 395.99952 
L 536.388458 395.99952 
L 536.388458 259.065499 
L 494.365835 259.065499 
z
" clip-path="url(#pfb2f18faab)" style="fill: #1d4ed8; opacity: 0.92; stroke: #1e3a8a; stroke-linejoin: miter"/>
   </g>
   <g id="patch_9">
    <path d="M 575.178571 395.99952 
L 617.201194 395.99952 
L 617.201194 350.354846 
L 575.178571 350.354846 
z
" clip-path="url(#pfb2f18faab)" style="fill: #1d4ed8; opacity: 0.92; stroke: #1e3a8a; stroke-linejoin: miter"/>
   </g>
   <g id="patch_10">
    <path d="M 655.991308 395.99952 
L 698.013931 395.99952 
L 698.013931 167.776152 
L 655.991308 167.776152 
z
" clip-path="url(#pfb2f18faab)" style="fill: #1d4ed8; opacity: 0.92; stroke: #1e3a8a; stroke-linejoin: miter"/>
   </g>
   <g id="line2d_25">
    <path d="M 90.302151 395.99952 
L 132.324775 395.99952 
" clip-path="url(#pfb2f18faab)" style="fill: none; stroke: #dc2626; stroke-width: 2.5; stroke-linecap: square"/>
   </g>
   <g id="patch_11">
    <path d="M 59.916563 395.99952 
L 59.916563 49.1 
" style="fill: none; stroke: #cbd5e1; stroke-width: 1.2; stroke-linejoin: miter; stroke-linecap: square"/>
   </g>
   <g id="patch_12">
    <path d="M 59.916563 395.99952 
L 728.39952 395.99952 
" style="fill: none; stroke: #cbd5e1; stroke-width: 1.2; stroke-linejoin: miter; stroke-linecap: square"/>
   </g>
   <g id="text_19">
    <!-- 0 คน -->
    <g style="fill: #dc2626" transform="translate(99.490494 362.276881) scale(0.17 -0.17)">
     <defs>
      <path id="THSarabunPSK-1f0" transform="scale(0.015625)"/>
      <path id="THSarabunPSK-d9" d="M 2157 0 
L 1926 0 
L 1926 1722 
Q 1926 2029 1699 2192 
Q 1472 2355 1184 2355 
Q 890 2355 669 2153 
Q 448 1952 448 1658 
Q 448 1517 499 1318 
Q 570 1037 576 998 
Q 634 1363 774 1619 
Q 960 1952 1242 1952 
Q 1402 1952 1504 1849 
Q 1606 1747 1606 1574 
Q 1606 1414 1497 1302 
Q 1389 1190 1229 1190 
Q 1062 1190 934 1344 
Q 845 1210 755 960 
Q 646 653 646 416 
L 646 0 
L 416 0 
L 416 589 
Q 416 774 313 1113 
Q 211 1453 211 1632 
Q 211 2048 492 2304 
Q 774 2560 1197 2560 
Q 1587 2560 1872 2352 
Q 2157 2144 2157 1741 
L 2157 0 
z
M 1427 1574 
Q 1427 1658 1369 1715 
Q 1312 1773 1229 1773 
Q 1146 1773 1088 1715 
Q 1030 1658 1030 1574 
Q 1030 1491 1088 1433 
Q 1146 1376 1229 1376 
Q 1312 1376 1369 1433 
Q 1427 1491 1427 1574 
z
" transform="scale(0.015625)"/>
      <path id="THSarabunPSK-ee" d="M 2458 365 
Q 2458 192 2333 70 
Q 2208 -51 2035 -51 
Q 1862 -51 1740 70 
Q 1619 192 1619 365 
L 1619 410 
Q 1222 250 1005 0 
L 723 0 
L 723 1760 
Q 640 1715 531 1715 
Q 358 1715 233 1840 
Q 109 1965 109 2138 
Q 109 2310 233 2435 
Q 358 2560 531 2560 
Q 704 2560 829 2435 
Q 954 2310 954 2138 
L 954 250 
Q 1082 390 1408 538 
Q 1773 704 1882 794 
Q 2099 966 2099 1235 
L 2099 2509 
L 2330 2509 
L 2330 1203 
Q 2330 896 2189 755 
Q 2458 646 2458 365 
z
M 749 2138 
Q 749 2227 685 2291 
Q 621 2355 531 2355 
Q 442 2355 378 2291 
Q 314 2227 314 2138 
Q 314 2048 378 1984 
Q 442 1920 531 1920 
Q 621 1920 685 1984 
Q 749 2048 749 2138 
z
M 2253 371 
Q 2253 461 2189 525 
Q 2125 589 2035 589 
Q 1946 589 1882 525 
Q 1818 461 1818 371 
Q 1818 282 1882 218 
Q 1946 154 2035 154 
Q 2125 154 2189 218 
Q 2253 282 2253 371 
z
" transform="scale(0.015625)"/>
     </defs>
     <use xlink:href="#THSarabunPSK-11"/>
     <use xlink:href="#THSarabunPSK-1f0" transform="translate(36.203125 0)"/>
     <use xlink:href="#THSarabunPSK-d9" transform="translate(57.796875 0)"/>
     <use xlink:href="#THSarabunPSK-ee" transform="translate(97.09375 0)"/>
    </g>
    <!-- (0.0%) -->
    <g style="fill: #dc2626" transform="translate(95.579166 382.89735) scale(0.17 -0.17)">
     <defs>
      <path id="THSarabunPSK-9" d="M 1082 -371 
L 838 -371 
Q 128 403 128 1498 
Q 128 2534 832 3405 
L 1088 3405 
Q 371 2586 371 1498 
Q 371 480 1082 -371 
z
" transform="scale(0.015625)"/>
      <path id="THSarabunPSK-f" d="M 736 179 
Q 736 90 669 26 
Q 602 -38 512 -38 
Q 422 -38 358 26 
Q 294 90 294 179 
Q 294 269 358 336 
Q 422 403 512 403 
Q 602 403 669 336 
Q 736 269 736 179 
z
" transform="scale(0.015625)"/>
      <path id="THSarabunPSK-6" d="M 2899 3046 
L 1043 -58 
L 826 -58 
L 2682 3046 
L 2899 3046 
z
M 1587 2138 
Q 1587 1229 902 1229 
Q 218 1229 218 2138 
Q 218 3046 902 3046 
Q 1587 3046 1587 2138 
z
M 1357 2138 
Q 1357 2842 902 2842 
Q 448 2842 448 2138 
Q 448 1434 902 1434 
Q 1357 1434 1357 2138 
z
M 3520 890 
Q 3520 -19 2835 -19 
Q 2150 -19 2150 890 
Q 2150 1798 2835 1798 
Q 3520 1798 3520 890 
z
M 3290 890 
Q 3290 1594 2835 1594 
Q 2381 1594 2381 890 
Q 2381 186 2835 186 
Q 3290 186 3290 890 
z
" transform="scale(0.015625)"/>
      <path id="THSarabunPSK-a" d="M 1082 1517 
Q 1082 454 371 -371 
L 128 -371 
Q 838 518 838 1517 
Q 838 2528 128 3405 
L 371 3405 
Q 1082 2605 1082 1517 
z
" transform="scale(0.015625)"/>
     </defs>
     <use xlink:href="#THSarabunPSK-9"/>
     <use xlink:href="#THSarabunPSK-11" transform="translate(19 0)"/>
     <use xlink:href="#THSarabunPSK-f" transform="translate(55.203125 0)"/>
     <use xlink:href="#THSarabunPSK-11" transform="translate(71.40625 0)"/>
     <use xlink:href="#THSarabunPSK-6" transform="translate(107.609375 0)"/>
     <use xlink:href="#THSarabunPSK-a" transform="translate(166.109375 0)"/>
    </g>
   </g>
   <g id="text_20">
    <!-- 6 คน -->
    <g style="fill: #111827" transform="translate(180.303231 88.476574) scale(0.17 -0.17)">
     <use xlink:href="#THSarabunPSK-17"/>
     <use xlink:href="#THSarabunPSK-1f0" transform="translate(36.203125 0)"/>
     <use xlink:href="#THSarabunPSK-d9" transform="translate(57.796875 0)"/>
     <use xlink:href="#THSarabunPSK-ee" transform="translate(97.09375 0)"/>
    </g>
    <!-- (31.6%) -->
    <g style="fill: #111827" transform="translate(173.314637 109.029308) scale(0.17 -0.17)">
     <use xlink:href="#THSarabunPSK-9"/>
     <use xlink:href="#THSarabunPSK-14" transform="translate(19 0)"/>
     <use xlink:href="#THSarabunPSK-12" transform="translate(55.203125 0)"/>
     <use xlink:href="#THSarabunPSK-f" transform="translate(91.40625 0)"/>
     <use xlink:href="#THSarabunPSK-17" transform="translate(107.609375 0)"/>
     <use xlink:href="#THSarabunPSK-6" transform="translate(143.8125 0)"/>
     <use xlink:href="#THSarabunPSK-a" transform="translate(202.3125 0)"/>
    </g>
   </g>
   <g id="text_21">
    <!-- 1 คน -->
    <g style="fill: #111827" transform="translate(261.115968 316.648145) scale(0.17 -0.17)">
     <use xlink:href="#THSarabunPSK-12"/>
     <use xlink:href="#THSarabunPSK-1f0" transform="translate(36.203125 0)"/>
     <use xlink:href="#THSarabunPSK-d9" transform="translate(57.796875 0)"/>
     <use xlink:href="#THSarabunPSK-ee" transform="translate(97.09375 0)"/>
    </g>
    <!-- (5.3%) -->
    <g style="fill: #111827" transform="translate(257.204639 337.252677) scale(0.17 -0.17)">
     <use xlink:href="#THSarabunPSK-9"/>
     <use xlink:href="#THSarabunPSK-16" transform="translate(19 0)"/>
     <use xlink:href="#THSarabunPSK-f" transform="translate(55.203125 0)"/>
     <use xlink:href="#THSarabunPSK-14" transform="translate(71.40625 0)"/>
     <use xlink:href="#THSarabunPSK-6" transform="translate(107.609375 0)"/>
     <use xlink:href="#THSarabunPSK-a" transform="translate(166.109375 0)"/>
    </g>
   </g>
   <g id="text_22">
    <!-- 1 คน -->
    <g style="fill: #111827" transform="translate(341.928704 316.648145) scale(0.17 -0.17)">
     <use xlink:href="#THSarabunPSK-12"/>
     <use xlink:href="#THSarabunPSK-1f0" transform="translate(36.203125 0)"/>
     <use xlink:href="#THSarabunPSK-d9" transform="translate(57.796875 0)"/>
     <use xlink:href="#THSarabunPSK-ee" transform="translate(97.09375 0)"/>
    </g>
    <!-- (5.3%) -->
    <g style="fill: #111827" transform="translate(338.017376 337.252677) scale(0.17 -0.17)">
     <use xlink:href="#THSarabunPSK-9"/>
     <use xlink:href="#THSarabunPSK-16" transform="translate(19 0)"/>
     <use xlink:href="#THSarabunPSK-f" transform="translate(55.203125 0)"/>
     <use xlink:href="#THSarabunPSK-14" transform="translate(71.40625 0)"/>
     <use xlink:href="#THSarabunPSK-6" transform="translate(107.609375 0)"/>
     <use xlink:href="#THSarabunPSK-a" transform="translate(166.109375 0)"/>
    </g>
   </g>
   <g id="text_23">
    <!-- 2 คน -->
    <g style="fill: #111827" transform="translate(422.741441 271.003472) scale(0.17 -0.17)">
     <use xlink:href="#THSarabunPSK-13"/>
     <use xlink:href="#THSarabunPSK-1f0" transform="translate(36.203125 0)"/>
     <use xlink:href="#THSarabunPSK-d9" transform="translate(57.796875 0)"/>
     <use xlink:href="#THSarabunPSK-ee" transform="translate(97.09375 0)"/>
    </g>
    <!-- (10.5%) -->
    <g style="fill: #111827" transform="translate(415.752847 291.608003) scale(0.17 -0.17)">
     <use xlink:href="#THSarabunPSK-9"/>
     <use xlink:href="#THSarabunPSK-12" transform="translate(19 0)"/>
     <use xlink:href="#THSarabunPSK-11" transform="translate(55.203125 0)"/>
     <use xlink:href="#THSarabunPSK-f" transform="translate(91.40625 0)"/>
     <use xlink:href="#THSarabunPSK-16" transform="translate(107.609375 0)"/>
     <use xlink:href="#THSarabunPSK-6" transform="translate(143.8125 0)"/>
     <use xlink:href="#THSarabunPSK-a" transform="translate(202.3125 0)"/>
    </g>
   </g>
   <g id="text_24">
    <!-- 3 คน -->
    <g style="fill: #111827" transform="translate(503.554177 225.316298) scale(0.17 -0.17)">
     <use xlink:href="#THSarabunPSK-14"/>
     <use xlink:href="#THSarabunPSK-1f0" transform="translate(36.203125 0)"/>
     <use xlink:href="#THSarabunPSK-d9" transform="translate(57.796875 0)"/>
     <use xlink:href="#THSarabunPSK-ee" transform="translate(97.09375 0)"/>
    </g>
    <!-- (15.8%) -->
    <g style="fill: #111827" transform="translate(496.565584 245.963329) scale(0.17 -0.17)">
     <defs>
      <path id="THSarabunPSK-19" d="M 1843 800 
Q 1843 1050 1670 1277 
Q 1498 1504 1152 1523 
Q 813 1504 640 1277 
Q 467 1050 467 800 
Q 467 512 662 342 
Q 858 173 1158 173 
Q 1453 173 1648 342 
Q 1843 512 1843 800 
z
M 1747 2310 
Q 1747 2534 1587 2681 
Q 1427 2829 1158 2829 
Q 883 2829 723 2681 
Q 563 2534 563 2310 
Q 563 1914 1152 1766 
Q 1747 1914 1747 2310 
z
M 2099 819 
Q 2099 410 1843 179 
Q 1587 -51 1152 -51 
Q 723 -51 467 179 
Q 211 410 211 819 
Q 211 1133 393 1360 
Q 576 1587 858 1645 
Q 621 1715 464 1897 
Q 307 2080 307 2291 
Q 307 2630 544 2848 
Q 781 3066 1158 3066 
Q 1530 3066 1766 2848 
Q 2003 2630 2003 2291 
Q 2003 2080 1846 1897 
Q 1690 1715 1453 1645 
Q 1734 1587 1916 1360 
Q 2099 1133 2099 819 
z
" transform="scale(0.015625)"/>
     </defs>
     <use xlink:href="#THSarabunPSK-9"/>
     <use xlink:href="#THSarabunPSK-12" transform="translate(19 0)"/>
     <use xlink:href="#THSarabunPSK-16" transform="translate(55.203125 0)"/>
     <use xlink:href="#THSarabunPSK-f" transform="translate(91.40625 0)"/>
     <use xlink:href="#THSarabunPSK-19" transform="translate(107.609375 0)"/>
     <use xlink:href="#THSarabunPSK-6" transform="translate(143.8125 0)"/>
     <use xlink:href="#THSarabunPSK-a" transform="translate(202.3125 0)"/>
    </g>
   </g>
   <g id="text_25">
    <!-- 1 คน -->
    <g style="fill: #111827" transform="translate(584.366914 316.648145) scale(0.17 -0.17)">
     <use xlink:href="#THSarabunPSK-12"/>
     <use xlink:href="#THSarabunPSK-1f0" transform="translate(36.203125 0)"/>
     <use xlink:href="#THSarabunPSK-d9" transform="translate(57.796875 0)"/>
     <use xlink:href="#THSarabunPSK-ee" transform="translate(97.09375 0)"/>
    </g>
    <!-- (5.3%) -->
    <g style="fill: #111827" transform="translate(580.455586 337.252677) scale(0.17 -0.17)">
     <use xlink:href="#THSarabunPSK-9"/>
     <use xlink:href="#THSarabunPSK-16" transform="translate(19 0)"/>
     <use xlink:href="#THSarabunPSK-f" transform="translate(55.203125 0)"/>
     <use xlink:href="#THSarabunPSK-14" transform="translate(71.40625 0)"/>
     <use xlink:href="#THSarabunPSK-6" transform="translate(107.609375 0)"/>
     <use xlink:href="#THSarabunPSK-a" transform="translate(166.109375 0)"/>
    </g>
   </g>
   <g id="text_26">
    <!-- 5 คน -->
    <g style="fill: #111827" transform="translate(665.179651 134.044216) scale(0.17 -0.17)">
     <use xlink:href="#THSarabunPSK-16"/>
     <use xlink:href="#THSarabunPSK-1f0" transform="translate(36.203125 0)"/>
     <use xlink:href="#THSarabunPSK-d9" transform="translate(57.796875 0)"/>
     <use xlink:href="#THSarabunPSK-ee" transform="translate(97.09375 0)"/>
    </g>
    <!-- (26.3%) -->
    <g style="fill: #111827" transform="translate(658.191057 154.673982) scale(0.17 -0.17)">
     <use xlink:href="#THSarabunPSK-9"/>
     <use xlink:href="#THSarabunPSK-13" transform="translate(19 0)"/>
     <use xlink:href="#THSarabunPSK-17" transform="translate(55.203125 0)"/>
     <use xlink:href="#THSarabunPSK-f" transform="translate(91.40625 0)"/>
     <use xlink:href="#THSarabunPSK-14" transform="translate(107.609375 0)"/>
     <use xlink:href="#THSarabunPSK-6" transform="translate(143.8125 0)"/>
     <use xlink:href="#THSarabunPSK-a" transform="translate(202.3125 0)"/>
    </g>
   </g>
   <g id="text_27">
    <!-- การแจกแจงระดับผลการเรียน 8 ระดับ รายวิชา 31909-0003 (1 สทค 2) -->
    <g style="fill: #111827" transform="translate(176.521322 33.1) scale(0.22 -0.22)">
     <defs>
      <path id="THSarabunPSK-Bold-112" d="M 1306 435 
Q 1306 230 1162 89 
Q 1018 -51 819 -51 
Q 602 -51 454 96 
Q 307 243 307 467 
L 307 2554 
L 704 2554 
L 704 909 
Q 736 922 819 922 
Q 1018 922 1162 781 
Q 1306 640 1306 435 
z
M 2502 435 
Q 2502 230 2358 89 
Q 2214 -51 2016 -51 
Q 1798 -51 1651 96 
Q 1504 243 1504 467 
L 1504 2554 
L 1901 2554 
L 1901 909 
Q 1933 922 2016 922 
Q 2214 922 2358 781 
Q 2502 640 2502 435 
z
M 1037 435 
Q 1037 525 973 589 
Q 909 653 819 653 
Q 730 653 666 589 
Q 602 525 602 435 
Q 602 346 666 282 
Q 730 218 819 218 
Q 909 218 973 282 
Q 1037 346 1037 435 
z
M 2234 435 
Q 2234 525 2170 589 
Q 2106 653 2016 653 
Q 1926 653 1862 589 
Q 1798 525 1798 435 
Q 1798 346 1862 282 
Q 1926 218 2016 218 
Q 2106 218 2170 282 
Q 2234 346 2234 435 
z
" transform="scale(0.015625)"/>
      <path id="THSarabunPSK-Bold-dc" d="M 1709 0 
L 1318 0 
L 122 1350 
L 358 1626 
L 1312 550 
L 1312 1651 
Q 1293 1645 1190 1645 
Q 992 1645 854 1776 
Q 717 1907 717 2112 
Q 717 2317 857 2461 
Q 998 2605 1190 2605 
Q 1414 2605 1561 2461 
Q 1709 2317 1709 2086 
L 1709 0 
z
M 1408 2125 
Q 1408 2214 1344 2278 
Q 1280 2342 1190 2342 
Q 1101 2342 1037 2278 
Q 973 2214 973 2125 
Q 973 2035 1037 1971 
Q 1101 1907 1190 1907 
Q 1280 1907 1344 1971 
Q 1408 2035 1408 2125 
z
" transform="scale(0.015625)"/>
      <path id="THSarabunPSK-Bold-19" d="M 1830 838 
Q 1830 1075 1670 1267 
Q 1510 1459 1210 1478 
Q 909 1459 749 1267 
Q 589 1075 589 838 
Q 589 589 761 441 
Q 934 294 1210 294 
Q 1485 294 1657 441 
Q 1830 589 1830 838 
z
M 1741 2272 
Q 1741 2464 1593 2592 
Q 1446 2720 1210 2720 
Q 973 2720 825 2592 
Q 678 2464 678 2272 
Q 678 1958 1203 1811 
Q 1741 1958 1741 2272 
z
M 2221 858 
Q 2221 435 1945 192 
Q 1670 -51 1203 -51 
Q 742 -51 470 192 
Q 198 435 198 858 
Q 198 1114 342 1331 
Q 486 1549 710 1651 
Q 294 1875 294 2253 
Q 294 2605 553 2835 
Q 813 3066 1210 3066 
Q 1606 3066 1865 2835 
Q 2125 2605 2125 2253 
Q 2125 1875 1709 1651 
Q 1933 1549 2077 1331 
Q 2221 1114 2221 858 
z
" transform="scale(0.015625)"/>
      <path id="THSarabunPSK-Bold-109" d="M -314 2880 
Q -1107 3136 -1766 3136 
Q -2067 3136 -2374 3098 
Q -2298 3955 -1440 3955 
Q -947 3955 -659 3657 
Q -371 3360 -314 2880 
z
M -723 3258 
Q -762 3418 -954 3558 
Q -1146 3699 -1389 3699 
Q -1619 3699 -1785 3606 
Q -1952 3514 -1997 3360 
Q -1888 3386 -1658 3386 
Q -1184 3386 -723 3258 
z
" transform="scale(0.015625)"/>
      <path id="THSarabunPSK-Bold-df" d="M 2330 602 
Q 2330 288 2134 118 
Q 1939 -51 1619 -51 
Q 1299 -51 1104 118 
Q 909 288 909 602 
L 909 1018 
Q 909 1203 1078 1513 
Q 1248 1824 1248 2003 
Q 1248 2150 1145 2246 
Q 1043 2342 909 2342 
Q 704 2342 634 2259 
Q 826 2253 944 2137 
Q 1062 2022 1062 1843 
Q 1062 1651 928 1520 
Q 794 1389 608 1389 
Q 390 1389 259 1545 
Q 128 1702 128 1926 
Q 128 2221 361 2413 
Q 595 2605 902 2605 
Q 1222 2605 1424 2451 
Q 1626 2298 1626 2003 
Q 1626 1811 1466 1465 
Q 1306 1120 1306 979 
L 1306 512 
Q 1306 403 1405 345 
Q 1504 288 1619 288 
Q 1741 288 1837 349 
Q 1933 410 1933 512 
L 1933 1568 
Q 1933 1805 1747 1862 
Q 1773 1978 1754 2086 
Q 2080 2208 2080 2701 
L 2477 2701 
Q 2432 2208 2138 1978 
Q 2330 1824 2330 1574 
L 2330 602 
z
M 806 1830 
Q 806 1914 748 1971 
Q 691 2029 608 2029 
Q 525 2029 467 1971 
Q 410 1914 410 1830 
Q 410 1747 467 1689 
Q 525 1632 608 1632 
Q 691 1632 748 1689 
Q 806 1747 806 1830 
z
" transform="scale(0.015625)"/>
      <path id="THSarabunPSK-Bold-1a" d="M 2182 1914 
Q 2182 1178 1696 614 
Q 1210 51 429 -102 
L 390 218 
Q 781 320 1168 627 
Q 1555 934 1709 1254 
Q 1523 1050 1139 1050 
Q 755 1050 492 1338 
Q 230 1626 230 2048 
Q 230 2477 489 2768 
Q 749 3059 1152 3059 
Q 1600 3059 1891 2745 
Q 2182 2432 2182 1914 
z
M 1747 2048 
Q 1747 2317 1577 2509 
Q 1408 2701 1165 2701 
Q 934 2701 768 2502 
Q 602 2304 602 2048 
Q 602 1792 768 1593 
Q 934 1395 1165 1395 
Q 1408 1395 1577 1584 
Q 1747 1773 1747 2048 
z
" transform="scale(0.015625)"/>
      <path id="THSarabunPSK-Bold-e" d="M 1363 1005 
L 83 1005 
L 83 1350 
L 1363 1350 
L 1363 1005 
z
" transform="scale(0.015625)"/>
      <path id="THSarabunPSK-Bold-ff" d="M 2227 0 
L 1830 0 
L 1830 1107 
Q 1830 1299 1613 1402 
Q 1446 1478 1242 1478 
Q 1043 1478 902 1382 
Q 730 1267 730 1075 
L 730 915 
Q 819 928 845 928 
Q 1050 928 1197 784 
Q 1344 640 1344 442 
Q 1344 237 1190 96 
Q 1037 -45 838 -45 
Q 627 -45 480 92 
Q 333 230 333 442 
L 333 1030 
Q 333 1408 614 1619 
Q 864 1805 1235 1805 
Q 1632 1805 1830 1587 
L 1830 1875 
Q 1830 2074 1600 2182 
Q 1421 2266 1197 2266 
Q 947 2266 768 2150 
Q 570 2022 531 1805 
L 147 1805 
Q 186 2195 486 2406 
Q 768 2605 1210 2605 
Q 1498 2605 1728 2502 
Q 1862 2624 1862 2810 
L 2310 2810 
Q 2234 2483 2035 2304 
Q 2227 2099 2227 1830 
L 2227 0 
z
M 1062 442 
Q 1062 531 998 595 
Q 934 659 845 659 
Q 755 659 691 595 
Q 627 531 627 442 
Q 627 352 691 288 
Q 755 224 845 224 
Q 934 224 998 288 
Q 1062 352 1062 442 
z
" transform="scale(0.015625)"/>
      <path id="THSarabunPSK-Bold-ec" d="M 2477 0 
L 2080 0 
L 2080 2067 
Q 2080 2266 1984 2266 
Q 1901 2266 1869 2170 
L 1107 0 
L 659 0 
L 659 1645 
Q 595 1632 550 1632 
Q 346 1632 205 1776 
Q 64 1920 64 2125 
Q 64 2323 205 2464 
Q 346 2605 550 2605 
Q 768 2605 912 2457 
Q 1056 2310 1056 2086 
L 1056 1133 
Q 1056 915 979 454 
Q 1050 736 1158 1082 
L 1517 2221 
Q 1638 2611 1997 2605 
Q 2477 2598 2477 2061 
L 2477 0 
z
M 768 2118 
Q 768 2208 704 2272 
Q 640 2336 550 2336 
Q 461 2336 397 2272 
Q 333 2208 333 2118 
Q 333 2029 397 1965 
Q 461 1901 550 1901 
Q 640 1901 704 1965 
Q 768 2029 768 2118 
z
" transform="scale(0.015625)"/>
     </defs>
     <use xlink:href="#THSarabunPSK-Bold-d6"/>
     <use xlink:href="#THSarabunPSK-Bold-107" transform="translate(39.09375 0)"/>
     <use xlink:href="#THSarabunPSK-Bold-f8" transform="translate(72.6875 0)"/>
     <use xlink:href="#THSarabunPSK-Bold-112" transform="translate(105.59375 0)"/>
     <use xlink:href="#THSarabunPSK-Bold-dd" transform="translate(143.09375 0)"/>
     <use xlink:href="#THSarabunPSK-Bold-d6" transform="translate(182.09375 0)"/>
     <use xlink:href="#THSarabunPSK-Bold-112" transform="translate(221.1875 0)"/>
     <use xlink:href="#THSarabunPSK-Bold-dd" transform="translate(258.6875 0)"/>
     <use xlink:href="#THSarabunPSK-Bold-dc" transform="translate(297.6875 0)"/>
     <use xlink:href="#THSarabunPSK-Bold-f8" transform="translate(329.484375 0)"/>
     <use xlink:href="#THSarabunPSK-Bold-105" transform="translate(362.390625 0)"/>
     <use xlink:href="#THSarabunPSK-Bold-e9" transform="translate(396.390625 0)"/>
     <use xlink:href="#THSarabunPSK-Bold-106" transform="translate(436.890625 0)"/>
     <use xlink:href="#THSarabunPSK-Bold-ef" transform="translate(436.890625 0)"/>
     <use xlink:href="#THSarabunPSK-Bold-f1" transform="translate(481.390625 0)"/>
     <use xlink:href="#THSarabunPSK-Bold-fa" transform="translate(522.796875 0)"/>
     <use xlink:href="#THSarabunPSK-Bold-d6" transform="translate(562.703125 0)"/>
     <use xlink:href="#THSarabunPSK-Bold-107" transform="translate(601.796875 0)"/>
     <use xlink:href="#THSarabunPSK-Bold-f8" transform="translate(635.390625 0)"/>
     <use xlink:href="#THSarabunPSK-Bold-111" transform="translate(668.296875 0)"/>
     <use xlink:href="#THSarabunPSK-Bold-f8" transform="translate(686.59375 0)"/>
     <use xlink:href="#THSarabunPSK-Bold-10a" transform="translate(719.5 0)"/>
     <use xlink:href="#THSarabunPSK-Bold-f7" transform="translate(719.5 0)"/>
     <use xlink:href="#THSarabunPSK-Bold-ee" transform="translate(758.09375 0)"/>
     <use xlink:href="#THSarabunPSK-Bold-1f0" transform="translate(801.390625 0)"/>
     <use xlink:href="#THSarabunPSK-Bold-19" transform="translate(823.984375 0)"/>
     <use xlink:href="#THSarabunPSK-Bold-1f0" transform="translate(861.78125 0)"/>
     <use xlink:href="#THSarabunPSK-Bold-f8" transform="translate(884.375 0)"/>
     <use xlink:href="#THSarabunPSK-Bold-105" transform="translate(917.28125 0)"/>
     <use xlink:href="#THSarabunPSK-Bold-e9" transform="translate(951.28125 0)"/>
     <use xlink:href="#THSarabunPSK-Bold-106" transform="translate(991.78125 0)"/>
     <use xlink:href="#THSarabunPSK-Bold-ef" transform="translate(991.78125 0)"/>
     <use xlink:href="#THSarabunPSK-Bold-1f0" transform="translate(1036.28125 0)"/>
     <use xlink:href="#THSarabunPSK-Bold-f8" transform="translate(1058.875 0)"/>
     <use xlink:href="#THSarabunPSK-Bold-107" transform="translate(1091.78125 0)"/>
     <use xlink:href="#THSarabunPSK-Bold-f7" transform="translate(1125.375 0)"/>
     <use xlink:href="#THSarabunPSK-Bold-fc" transform="translate(1163.96875 0)"/>
     <use xlink:href="#THSarabunPSK-Bold-109" transform="translate(1201.875 0)"/>
     <use xlink:href="#THSarabunPSK-Bold-df" transform="translate(1201.875 0)"/>
     <use xlink:href="#THSarabunPSK-Bold-107" transform="translate(1243.375 0)"/>
     <use xlink:href="#THSarabunPSK-Bold-1f0" transform="translate(1276.96875 0)"/>
     <use xlink:href="#THSarabunPSK-Bold-14" transform="translate(1299.5625 0)"/>
     <use xlink:href="#THSarabunPSK-Bold-12" transform="translate(1337.359375 0)"/>
     <use xlink:href="#THSarabunPSK-Bold-1a" transform="translate(1375.15625 0)"/>
     <use xlink:href="#THSarabunPSK-Bold-11" transform="translate(1412.953125 0)"/>
     <use xlink:href="#THSarabunPSK-Bold-1a" transform="translate(1450.75 0)"/>
     <use xlink:href="#THSarabunPSK-Bold-e" transform="translate(1488.546875 0)"/>
     <use xlink:href="#THSarabunPSK-Bold-11" transform="translate(1511.140625 0)"/>
     <use xlink:href="#THSarabunPSK-Bold-11" transform="translate(1548.9375 0)"/>
     <use xlink:href="#THSarabunPSK-Bold-11" transform="translate(1586.734375 0)"/>
     <use xlink:href="#THSarabunPSK-Bold-14" transform="translate(1624.53125 0)"/>
     <use xlink:href="#THSarabunPSK-Bold-1f0" transform="translate(1662.328125 0)"/>
     <use xlink:href="#THSarabunPSK-Bold-9" transform="translate(1684.921875 0)"/>
     <use xlink:href="#THSarabunPSK-Bold-12" transform="translate(1709.328125 0)"/>
     <use xlink:href="#THSarabunPSK-Bold-1f0" transform="translate(1747.125 0)"/>
     <use xlink:href="#THSarabunPSK-Bold-ff" transform="translate(1769.71875 0)"/>
     <use xlink:href="#THSarabunPSK-Bold-ec" transform="translate(1809.625 0)"/>
     <use xlink:href="#THSarabunPSK-Bold-d9" transform="translate(1853.421875 0)"/>
     <use xlink:href="#THSarabunPSK-Bold-1f0" transform="translate(1893.71875 0)"/>
     <use xlink:href="#THSarabunPSK-Bold-13" transform="translate(1916.3125 0)"/>
     <use xlink:href="#THSarabunPSK-Bold-a" transform="translate(1954.109375 0)"/>
    </g>
   </g>
  </g>
 </g>
 <defs>
  <clipPath id="pfb2f18faab">
   <rect x="59.916563" y="49.1" width="668.482957" height="346.89952"/>
  </clipPath>
 </defs>
</svg>
